<svg width="16" height="16" viewBox="0 0 16 16" fill="none" xmlns="http://www.w3.org/2000/svg">
<path d="M8.00003 10.1333C9.17824 10.1333 10.1334 9.17818 10.1334 7.99997C10.1334 6.82176 9.17824 5.86664 8.00003 5.86664C6.82182 5.86664 5.8667 6.82176 5.8667 7.99997C5.8667 9.17818 6.82182 10.1333 8.00003 10.1333Z" fill="#54595D"/>
<path d="M6.00016 1.33331L4.78016 2.66665H2.66683C1.9335 2.66665 1.3335 3.26665 1.3335 3.99998V12C1.3335 12.7333 1.9335 13.3333 2.66683 13.3333H13.3335C14.0668 13.3333 14.6668 12.7333 14.6668 12V3.99998C14.6668 3.26665 14.0668 2.66665 13.3335 2.66665H11.2202L10.0002 1.33331H6.00016ZM8.00016 11.3333C6.16016 11.3333 4.66683 9.83998 4.66683 7.99998C4.66683 6.15998 6.16016 4.66665 8.00016 4.66665C9.84016 4.66665 11.3335 6.15998 11.3335 7.99998C11.3335 9.83998 9.84016 11.3333 8.00016 11.3333Z" fill="#54595D"/>
</svg>
