<svg width="22" height="22" viewBox="0 0 22 22" fill="none" xmlns="http://www.w3.org/2000/svg">
<path d="M14.6665 10.0833C16.1882 10.0833 17.4073 8.85498 17.4073 7.33331C17.4073 5.81165 16.1882 4.58331 14.6665 4.58331C13.1448 4.58331 11.9165 5.81165 11.9165 7.33331C11.9165 8.85498 13.1448 10.0833 14.6665 10.0833ZM7.33317 10.0833C8.85484 10.0833 10.074 8.85498 10.074 7.33331C10.074 5.81165 8.85484 4.58331 7.33317 4.58331C5.8115 4.58331 4.58317 5.81165 4.58317 7.33331C4.58317 8.85498 5.8115 10.0833 7.33317 10.0833ZM7.33317 11.9166C5.19734 11.9166 0.916504 12.9891 0.916504 15.125V17.4166H13.7498V15.125C13.7498 12.9891 9.469 11.9166 7.33317 11.9166ZM14.6665 11.9166C14.4007 11.9166 14.0982 11.935 13.7773 11.9625C14.8407 12.7325 15.5832 13.7683 15.5832 15.125V17.4166H21.0832V15.125C21.0832 12.9891 16.8023 11.9166 14.6665 11.9166Z" fill="#2086C4"/>
</svg>
