<svg width="22" height="22" viewBox="0 0 22 22" fill="none" xmlns="http://www.w3.org/2000/svg">
<path d="M9.16667 11C11.1917 11 12.8333 9.3584 12.8333 7.33335C12.8333 5.30831 11.1917 3.66669 9.16667 3.66669C7.14162 3.66669 5.5 5.30831 5.5 7.33335C5.5 9.3584 7.14162 11 9.16667 11Z" fill="#2086C4"/>
<path d="M9.48766 12.8425C6.98516 12.7509 1.8335 13.9975 1.8335 16.5V18.3334H10.5785C8.31433 15.8034 9.451 12.9342 9.48766 12.8425Z" fill="#2086C4"/>
<path d="M17.8108 16.5183C18.1408 15.9775 18.3333 15.345 18.3333 14.6667C18.3333 12.6408 16.6925 11 14.6667 11C12.6408 11 11 12.6408 11 14.6667C11 16.6925 12.6408 18.3333 14.6667 18.3333C15.345 18.3333 15.9775 18.1317 16.5183 17.8108L18.8742 20.1667L20.1667 18.8742L17.8108 16.5183ZM14.6667 16.5C13.6583 16.5 12.8333 15.675 12.8333 14.6667C12.8333 13.6583 13.6583 12.8333 14.6667 12.8333C15.675 12.8333 16.5 13.6583 16.5 14.6667C16.5 15.675 15.675 16.5 14.6667 16.5Z" fill="#2086C4"/>
</svg>
