<svg width="26" height="26" viewBox="0 0 26 26" fill="none" xmlns="http://www.w3.org/2000/svg">
<path d="M16.2502 13C18.6443 13 20.5835 11.0609 20.5835 8.66671C20.5835 6.27254 18.6443 4.33337 16.2502 4.33337C13.856 4.33337 11.9168 6.27254 11.9168 8.66671C11.9168 11.0609 13.856 13 16.2502 13ZM16.2502 6.50004C17.4418 6.50004 18.4168 7.47504 18.4168 8.66671C18.4168 9.85837 17.4418 10.8334 16.2502 10.8334C15.0585 10.8334 14.0835 9.85837 14.0835 8.66671C14.0835 7.47504 15.0585 6.50004 16.2502 6.50004ZM16.2502 15.1667C13.3577 15.1667 7.5835 16.6184 7.5835 19.5V21.6667H24.9168V19.5C24.9168 16.6184 19.1427 15.1667 16.2502 15.1667ZM9.75016 19.5C9.9885 18.72 13.336 17.3334 16.2502 17.3334C19.1752 17.3334 22.5335 18.7309 22.7502 19.5H9.75016ZM6.50016 16.25V13H9.75016V10.8334H6.50016V7.58337H4.3335V10.8334H1.0835V13H4.3335V16.25H6.50016Z" fill="white"/>
</svg>
