<svg width="26" height="26" viewBox="0 0 26 26" fill="none" xmlns="http://www.w3.org/2000/svg">
<path d="M13.0021 23.8324C14.1938 23.8324 15.1688 22.8574 15.1688 21.6657H10.8354C10.8354 22.8574 11.8104 23.8324 13.0021 23.8324ZM19.5021 17.3324V11.9157C19.5021 8.5899 17.7363 5.80573 14.6271 5.06906V4.3324C14.6271 3.43323 13.9013 2.7074 13.0021 2.7074C12.1029 2.7074 11.3771 3.43323 11.3771 4.3324V5.06906C8.27878 5.80573 6.50212 8.57906 6.50212 11.9157V17.3324L4.33545 19.4991V20.5824H21.6688V19.4991L19.5021 17.3324ZM17.3354 18.4157H8.66878V11.9157C8.66878 9.22906 10.3046 7.04073 13.0021 7.04073C15.6996 7.04073 17.3354 9.22906 17.3354 11.9157V18.4157Z" fill="white"/>
</svg>
