<svg width="22" height="22" viewBox="0 0 22 22" fill="none" xmlns="http://www.w3.org/2000/svg">
<path d="M11.0002 13.9333C12.6203 13.9333 13.9336 12.62 13.9336 11C13.9336 9.37995 12.6203 8.06665 11.0002 8.06665C9.38019 8.06665 8.06689 9.37995 8.06689 11C8.06689 12.62 9.38019 13.9333 11.0002 13.9333Z" fill="#2086C4"/>
<path d="M8.25016 1.83331L6.57266 3.66665H3.66683C2.6585 3.66665 1.8335 4.49165 1.8335 5.49998V16.5C1.8335 17.5083 2.6585 18.3333 3.66683 18.3333H18.3335C19.3418 18.3333 20.1668 17.5083 20.1668 16.5V5.49998C20.1668 4.49165 19.3418 3.66665 18.3335 3.66665H15.4277L13.7502 1.83331H8.25016ZM11.0002 15.5833C8.47016 15.5833 6.41683 13.53 6.41683 11C6.41683 8.46998 8.47016 6.41665 11.0002 6.41665C13.5302 6.41665 15.5835 8.46998 15.5835 11C15.5835 13.53 13.5302 15.5833 11.0002 15.5833Z" fill="#2086C4"/>
</svg>
