<svg width="105" height="40" viewBox="0 0 105 40" fill="none" xmlns="http://www.w3.org/2000/svg">
<g clip-path="url(#clip0)">
<path d="M33.4771 23.9231L27.2899 21.5431C27.7107 19.5531 27.3141 17.3969 26.0322 15.6316L32.4981 9.16565C35.7648 11.1532 40 8.79569 40 4.94118C40 2.21663 37.7834 0 35.0588 0C31.2011 0 28.8488 4.23851 30.8344 7.50188L24.3684 13.9678C21.5923 11.9519 17.7864 12.0899 15.1589 14.3409L11.8682 11.5437C13.51 8.27616 11.1226 4.39216 7.45098 4.39216C4.72643 4.39216 2.5098 6.60878 2.5098 9.33333C2.5098 13.3772 7.11082 15.6785 10.3435 13.3357L13.6336 16.1324C12.0773 18.6847 12.2005 21.9346 13.9679 24.3684L9.66431 28.6719C5.59388 25.9124 0 28.8217 0 33.8039C0 37.2205 2.77953 40 6.19608 40C11.1741 40 14.0906 34.4104 11.328 30.3358L15.6316 26.0322C17.4351 27.342 19.6871 27.7518 21.7837 27.2347L24.4584 33.5571C21.9283 35.8022 23.5201 40 26.902 40C28.9346 40 30.5882 38.3464 30.5882 36.3137C30.5882 34.2015 28.7929 32.4769 26.6249 32.639L23.9496 26.3153C24.9747 25.6718 25.833 24.786 26.4431 23.7385L32.6315 26.119C32.5433 28.2271 34.2341 29.9608 36.3137 29.9608C38.3464 29.9608 40 28.3071 40 26.2745C40 22.8554 35.6874 21.2613 33.4771 23.9231Z" fill="white"/>
</g>
<path d="M52.4608 12.864H57.7888C60.0608 12.864 61.7808 13.184 62.9488 13.824C64.1328 14.464 64.7248 15.592 64.7248 17.208C64.7248 18.184 64.4928 19.008 64.0288 19.68C63.5808 20.352 62.9328 20.76 62.0848 20.904V21.024C62.6448 21.152 63.1568 21.36 63.6208 21.648C64.1008 21.92 64.4768 22.328 64.7488 22.872C65.0208 23.416 65.1568 24.136 65.1568 25.032C65.1568 26.584 64.5888 27.8 63.4528 28.68C62.3328 29.56 60.8048 30 58.8688 30H52.4608V12.864ZM56.0848 19.656H58.1968C59.2528 19.656 59.9808 19.496 60.3808 19.176C60.7968 18.84 61.0048 18.344 61.0048 17.688C61.0048 17.032 60.7648 16.56 60.2848 16.272C59.8048 15.984 59.0448 15.84 58.0048 15.84H56.0848V19.656ZM56.0848 22.536V27H58.4608C59.5488 27 60.3088 26.792 60.7408 26.376C61.1728 25.944 61.3888 25.376 61.3888 24.672C61.3888 24.032 61.1648 23.52 60.7168 23.136C60.2848 22.736 59.4928 22.536 58.3408 22.536H56.0848ZM70.0978 11.76C70.6258 11.76 71.0818 11.888 71.4658 12.144C71.8498 12.384 72.0418 12.84 72.0418 13.512C72.0418 14.168 71.8498 14.624 71.4658 14.88C71.0818 15.136 70.6258 15.264 70.0978 15.264C69.5538 15.264 69.0898 15.136 68.7058 14.88C68.3378 14.624 68.1538 14.168 68.1538 13.512C68.1538 12.84 68.3378 12.384 68.7058 12.144C69.0898 11.888 69.5538 11.76 70.0978 11.76ZM71.8738 16.896V30H68.2978V16.896H71.8738ZM83.0503 16.656C84.4583 16.656 85.5863 17.04 86.4343 17.808C87.2823 18.56 87.7063 19.776 87.7063 21.456V30H84.1303V22.344C84.1303 21.4 83.9623 20.696 83.6263 20.232C83.2903 19.752 82.7543 19.512 82.0183 19.512C80.9303 19.512 80.1863 19.888 79.7863 20.64C79.3863 21.376 79.1863 22.44 79.1863 23.832V30H75.6103V16.896H78.3463L78.8263 18.576H79.0183C79.4343 17.904 80.0023 17.416 80.7223 17.112C81.4583 16.808 82.2343 16.656 83.0503 16.656ZM95.5357 30.24C94.0797 30.24 92.8877 29.672 91.9597 28.536C91.0477 27.384 90.5917 25.696 90.5917 23.472C90.5917 21.232 91.0557 19.536 91.9837 18.384C92.9117 17.232 94.1277 16.656 95.6317 16.656C96.5757 16.656 97.3517 16.84 97.9597 17.208C98.5677 17.576 99.0477 18.032 99.3997 18.576H99.5197C99.4717 18.32 99.4157 17.952 99.3517 17.472C99.2877 16.976 99.2557 16.472 99.2557 15.96V11.76H102.832V30H100.096L99.3997 28.296H99.2557C98.9037 28.84 98.4317 29.304 97.8397 29.688C97.2477 30.056 96.4797 30.24 95.5357 30.24ZM96.7837 27.384C97.7597 27.384 98.4477 27.096 98.8477 26.52C99.2477 25.928 99.4637 25.048 99.4957 23.88V23.496C99.4957 22.232 99.2957 21.264 98.8957 20.592C98.5117 19.904 97.7917 19.56 96.7357 19.56C95.9517 19.56 95.3357 19.904 94.8877 20.592C94.4397 21.264 94.2157 22.24 94.2157 23.52C94.2157 24.8 94.4397 25.768 94.8877 26.424C95.3357 27.064 95.9677 27.384 96.7837 27.384Z" fill="white"/>
<defs>
<clipPath id="clip0">
<rect width="40" height="40" fill="white"/>
</clipPath>
</defs>
</svg>
